# xmcd
#
# Track frame offsets:
#	150
#	8754
#	16030
#	34510
#	41086
#	55037
#	64991
#	75185
#	79543
#	84344
#	99143
#	107859
#	116069
#	123893
#
# Disc length: 1907 seconds
#
# Revision: 1
# Processed by: cddbd v1.5.2PL0 Copyright (c) Steve Scherf et al.
# Submitted via: audiograbber 1.83.01
#
DISCID=9207710e
DTITLE=Hildergardis Kinder 2001 - Wie klingt Weihnachten - Lieblingslieder der 
DTITLE=Hildegardiskinder
DYEAR=2001
DGENRE=Weihnachslider
TTITLE0=Ja, dann ist Advent
TTITLE1=Dicke rote Kerze
TTITLE2=Der Nikolaus ist hier
TTITLE3=Kling, Klang
TTITLE4=Weihnachtsbäckerei
TTITLE5=Winterzeit, Weihnachtszeit
TTITLE6=Der Tannenzweig
TTITLE7=Schneeflöckchen
TTITLE8=Wunderkerze, Wunderkerze
TTITLE9=Piep, Piep
TTITLE10=Wir tragen dein Licht
TTITLE11=Na klar, der Tannenbaum
TTITLE12=Kling Glöckchen
TTITLE13=Maria und Josef
EXTD=
EXTT0=
EXTT1=
EXTT2=
EXTT3=
EXTT4=
EXTT5=
EXTT6=
EXTT7=
EXTT8=
EXTT9=
EXTT10=
EXTT11=
EXTT12=
EXTT13=
PLAYORDER=
